ffmpeg started on 2025-04-30 at 17:42:48
Report written to "D:\Convert\FFMetrics\reports\ssim_report-6.txt"
Log level: 32
Command line:
ffmpeg -hide_banner -nostdin -i "G:\\\xc0\xed\xe8\xec\xe5\\\xce\xed\xe3\xee\xe8\xed\xe3\xe8\\!_37_\xc7\xe8\xec\xe0_2025\\JamClub\\\xcf\xee\xe4\xed\xff\xf2\xe8\xe5 \xf3\xf0\xee\xe2\xed\xff \xe2 \xee\xe4\xe8\xed\xee\xf7\xea\xf3\\\xd2\xc2-2\\JamClub_Ore_dake_Level_Up_na_Ken_Season_2_09_1080p_HEVC.mkv" -i "G:\\\xc0\xed\xe8\xec\xe5\\\xce\xed\xe3\xee\xe8\xed\xe3\xe8\\!_37_\xc7\xe8\xec\xe0_2025\\JamClub\\\xcf\xee\xe4\xed\xff\xf2\xe8\xe5 \xf3\xf0\xee\xe2\xed\xff \xe2 \xee\xe4\xe8\xed\xee\xf7\xea\xf3\\\xd2\xc2-2\\JamClub_Ore_dake_Level_Up_na_Ken_Season_2_09_1080p.mp4" -lavfi "[0:v]settb=AVTB,setpts=PTS-STARTPTS,format=pix_fmts=yuv420p10,fps=24000/1001,scale=1920:1080:flags=bicubic[main];[1:v]settb=AVTB,setpts=PTS-STARTPTS,format=pix_fmts=yuv420p,fps=24000/1001,scale=1920:1080:flags=bicubic[ref];[main][ref]ssim=eof_action=endall:stats_file='D\\:/Convert/FFMetrics/logs/ssim_logfile-6.txt'" -f null -
Input #0, matroska,webm, from 'G:\Аниме\Онгоинги\!_37_Зима_2025\JamClub\Поднятие уровня в одиночку\ТВ-2\JamClub_Ore_dake_Level_Up_na_Ken_Season_2_09_1080p_HEVC.mkv':
  Metadata:
    COMPATIBLE_BRANDS: isomiso2avc1mp41
    MAJOR_BRAND     : isom
    MINOR_VERSION   : 512
    ENCODER         : Lavf61.7.100
  Duration: 00:24:02.33, start: -0.001000, bitrate: 1429 kb/s
  Stream #0:0: Video: hevc (Main 10), yuv420p10le(tv, bt709, progressive), 1920x1080 [SAR 1:1 DAR 16:9], 23.98 fps, 23.98 tbr, 1k tbn (default)
      Metadata:
        HANDLER_NAME    : VideoHandler
        VENDOR_ID       : [0][0][0][0]
        ENCODER         : Lavc61.19.100 libx265
        BPS             : 1230565
        DURATION        : 00:24:02.190708333
        NUMBER_OF_FRAMES: 34578
        NUMBER_OF_BYTES : 221838675
        _STATISTICS_WRITING_APP: mkvpropedit v66.0.0 ('Josie') 64-bit
        _STATISTICS_WRITING_DATE_UTC: 2025-04-30 09:21:49
        _STATISTICS_TAGS: BPS DURATION NUMBER_OF_FRAMES NUMBER_OF_BYTES
  Stream #0:1(eng): Audio: aac (LC), 48000 Hz, stereo, fltp (default)
      Metadata:
        HANDLER_NAME    : SoundHandler
        VENDOR_ID       : [0][0][0][0]
        ENCODER         : Lavc61.19.100 aac
        BPS             : 195325
        DURATION        : 00:24:02.285000000
        NUMBER_OF_FRAMES: 67608
        NUMBER_OF_BYTES : 35214468
        _STATISTICS_WRITING_APP: mkvpropedit v66.0.0 ('Josie') 64-bit
        _STATISTICS_WRITING_DATE_UTC: 2025-04-30 09:21:49
        _STATISTICS_TAGS: BPS DURATION NUMBER_OF_FRAMES NUMBER_OF_BYTES
Input #1, mov,mp4,m4a,3gp,3g2,mj2, from 'G:\Аниме\Онгоинги\!_37_Зима_2025\JamClub\Поднятие уровня в одиночку\ТВ-2\JamClub_Ore_dake_Level_Up_na_Ken_Season_2_09_1080p.mp4':
  Metadata:
    major_brand     : isom
    minor_version   : 512
    compatible_brands: isomiso2avc1mp41
    encoder         : Lavf60.16.100
  Duration: 00:24:02.31, start: 0.000000, bitrate: 4506 kb/s
  Stream #1:0[0x1](und): Video: h264 (High) (avc1 / 0x31637661), yuv420p(progressive), 1920x1080 [SAR 1:1 DAR 16:9], 4308 kb/s, 23.98 fps, 23.98 tbr, 90k tbn (default)
      Metadata:
        handler_name    : VideoHandler
        vendor_id       : [0][0][0][0]
  Stream #1:1[0x2](eng): Audio: aac (LC) (mp4a / 0x6134706D), 48000 Hz, stereo, fltp, 191 kb/s (default)
      Metadata:
        handler_name    : SoundHandler
        vendor_id       : [0][0][0][0]
Stream mapping:
  Stream #0:0 (hevc) -> settb:default
  Stream #1:0 (h264) -> settb:default
  ssim:default -> Stream #0:0 (wrapped_avframe)
  Stream #0:1 -> #0:1 (aac (native) -> pcm_s16le (native))
Output #0, null, to 'pipe:':
  Metadata:
    COMPATIBLE_BRANDS: isomiso2avc1mp41
    MAJOR_BRAND     : isom
    MINOR_VERSION   : 512
    encoder         : Lavf61.7.100
  Stream #0:0: Video: wrapped_avframe, yuv420p10le(tv, bt709, progressive), 1920x1080 [SAR 1:1 DAR 16:9], q=2-31, 200 kb/s, 23.98 fps, 23.98 tbn
      Metadata:
        encoder         : Lavc61.19.100 wrapped_avframe
  Stream #0:1(eng): Audio: pcm_s16le, 48000 Hz, stereo, s16, 1536 kb/s (default)
      Metadata:
        HANDLER_NAME    : SoundHandler
        VENDOR_ID       : [0][0][0][0]
        _STATISTICS_TAGS: BPS DURATION NUMBER_OF_FRAMES NUMBER_OF_BYTES
        BPS             : 195325
        DURATION        : 00:24:02.285000000
        NUMBER_OF_FRAMES: 67608
        NUMBER_OF_BYTES : 35214468
        _STATISTICS_WRITING_APP: mkvpropedit v66.0.0 ('Josie') 64-bit
        _STATISTICS_WRITING_DATE_UTC: 2025-04-30 09:21:49
        encoder         : Lavc61.19.100 pcm_s16le
frame=  112 fps=0.0 q=-0.0 size=N/A time=00:00:04.67 bitrate=N/A speed=9.07x    frame=  274 fps=264 q=-0.0 size=N/A time=00:00:11.42 bitrate=N/A speed=  11x    frame=  465 fps=301 q=-0.0 size=N/A time=00:00:19.39 bitrate=N/A speed=12.5x    frame=  664 fps=321 q=-0.0 size=N/A time=00:00:27.69 bitrate=N/A speed=13.4x    frame=  865 fps=336 q=-0.0 size=N/A time=00:00:36.07 bitrate=N/A speed=  14x    frame= 1073 fps=346 q=-0.0 size=N/A time=00:00:44.75 bitrate=N/A speed=14.4x    frame= 1253 fps=347 q=-0.0 size=N/A time=00:00:52.26 bitrate=N/A speed=14.5x    frame= 1424 fps=346 q=-0.0 size=N/A time=00:00:59.39 bitrate=N/A speed=14.4x    frame= 1599 fps=344 q=-0.0 size=N/A time=00:01:06.69 bitrate=N/A speed=14.4x    frame= 1777 fps=345 q=-0.0 size=N/A time=00:01:14.11 bitrate=N/A speed=14.4x    frame= 1964 fps=347 q=-0.0 size=N/A time=00:01:21.91 bitrate=N/A speed=14.5x    frame= 2140 fps=346 q=-0.0 size=N/A time=00:01:29.25 bitrate=N/A speed=14.4x    frame= 2294 fps=343 q=-0.0 size=N/A time=00:01:35.67 bitrate=N/A speed=14.3x    frame= 2459 fps=340 q=-0.0 size=N/A time=00:01:42.56 bitrate=N/A speed=14.2x    frame= 2632 fps=340 q=-0.0 size=N/A time=00:01:49.77 bitrate=N/A speed=14.2x    frame= 2839 fps=344 q=-0.0 size=N/A time=00:01:58.40 bitrate=N/A speed=14.3x    frame= 3030 fps=346 q=-0.0 size=N/A time=00:02:06.37 bitrate=N/A speed=14.4x    frame= 3298 fps=355 q=-0.0 size=N/A time=00:02:17.55 bitrate=N/A speed=14.8x    frame= 3496 fps=357 q=-0.0 size=N/A time=00:02:25.81 bitrate=N/A speed=14.9x    frame= 3664 fps=355 q=-0.0 size=N/A time=00:02:32.81 bitrate=N/A speed=14.8x    frame= 3876 fps=358 q=-0.0 size=N/A time=00:02:41.66 bitrate=N/A speed=14.9x    frame= 4116 fps=363 q=-0.0 size=N/A time=00:02:51.67 bitrate=N/A speed=15.1x    frame= 4335 fps=365 q=-0.0 size=N/A time=00:03:00.80 bitrate=N/A speed=15.2x    frame= 4544 fps=367 q=-0.0 size=N/A time=00:03:09.52 bitrate=N/A speed=15.3x    frame= 4766 fps=370 q=-0.0 size=N/A time=00:03:18.78 bitrate=N/A speed=15.4x    frame= 4958 fps=369 q=-0.0 size=N/A time=00:03:26.78 bitrate=N/A speed=15.4x    frame= 5192 fps=373 q=-0.0 size=N/A time=00:03:36.54 bitrate=N/A speed=15.5x    frame= 5413 fps=374 q=-0.0 size=N/A time=00:03:45.76 bitrate=N/A speed=15.6x    frame= 5623 fps=376 q=-0.0 size=N/A time=00:03:54.52 bitrate=N/A speed=15.7x    frame= 5854 fps=378 q=-0.0 size=N/A time=00:04:04.16 bitrate=N/A speed=15.8x    frame= 6100 fps=381 q=-0.0 size=N/A time=00:04:14.42 bitrate=N/A speed=15.9x    frame= 6339 fps=384 q=-0.0 size=N/A time=00:04:24.38 bitrate=N/A speed=  16x    frame= 6588 fps=387 q=-0.0 size=N/A time=00:04:34.77 bitrate=N/A speed=16.1x    frame= 6832 fps=389 q=-0.0 size=N/A time=00:04:44.95 bitrate=N/A speed=16.2x    frame= 7061 fps=391 q=-0.0 size=N/A time=00:04:54.50 bitrate=N/A speed=16.3x    frame= 7280 fps=392 q=-0.0 size=N/A time=00:05:03.63 bitrate=N/A speed=16.3x    frame= 7512 fps=393 q=-0.0 size=N/A time=00:05:13.31 bitrate=N/A speed=16.4x    frame= 7790 fps=397 q=-0.0 size=N/A time=00:05:24.90 bitrate=N/A speed=16.6x    frame= 8047 fps=400 q=-0.0 size=N/A time=00:05:35.62 bitrate=N/A speed=16.7x    frame= 8301 fps=402 q=-0.0 size=N/A time=00:05:46.22 bitrate=N/A speed=16.8x    frame= 8562 fps=404 q=-0.0 size=N/A time=00:05:57.10 bitrate=N/A speed=16.9x    frame= 8831 fps=407 q=-0.0 size=N/A time=00:06:08.32 bitrate=N/A speed=  17x    frame= 9085 fps=409 q=-0.0 size=N/A time=00:06:18.92 bitrate=N/A speed=17.1x    frame= 9297 fps=409 q=-0.0 size=N/A time=00:06:27.76 bitrate=N/A speed=17.1x    frame= 9569 fps=412 q=-0.0 size=N/A time=00:06:39.10 bitrate=N/A speed=17.2x    frame= 9812 fps=413 q=-0.0 size=N/A time=00:06:49.24 bitrate=N/A speed=17.2x    frame=10086 fps=416 q=-0.0 size=N/A time=00:07:00.67 bitrate=N/A speed=17.3x    frame=10321 fps=417 q=-0.0 size=N/A time=00:07:10.47 bitrate=N/A speed=17.4x    frame=10599 fps=419 q=-0.0 size=N/A time=00:07:22.06 bitrate=N/A speed=17.5x    frame=10863 fps=421 q=-0.0 size=N/A time=00:07:33.07 bitrate=N/A speed=17.6x    frame=11114 fps=422 q=-0.0 size=N/A time=00:07:43.54 bitrate=N/A speed=17.6x    frame=11372 fps=424 q=-0.0 size=N/A time=00:07:54.30 bitrate=N/A speed=17.7x    frame=11638 fps=425 q=-0.0 size=N/A time=00:08:05.40 bitrate=N/A speed=17.7x    frame=11905 fps=427 q=-0.0 size=N/A time=00:08:16.53 bitrate=N/A speed=17.8x    frame=12163 fps=428 q=-0.0 size=N/A time=00:08:27.29 bitrate=N/A speed=17.9x    frame=12424 fps=430 q=-0.0 size=N/A time=00:08:38.18 bitrate=N/A speed=17.9x    frame=12614 fps=429 q=-0.0 size=N/A time=00:08:46.10 bitrate=N/A speed=17.9x    frame=12809 fps=428 q=-0.0 size=N/A time=00:08:54.24 bitrate=N/A speed=17.8x    frame=13052 fps=428 q=-0.0 size=N/A time=00:09:04.37 bitrate=N/A speed=17.9x    frame=13308 fps=429 q=-0.0 size=N/A time=00:09:15.05 bitrate=N/A speed=17.9x    frame=13551 fps=430 q=-0.0 size=N/A time=00:09:25.18 bitrate=N/A speed=17.9x    frame=13810 fps=431 q=-0.0 size=N/A time=00:09:35.99 bitrate=N/A speed=  18x    frame=14065 fps=432 q=-0.0 size=N/A time=00:09:46.62 bitrate=N/A speed=  18x    frame=14314 fps=433 q=-0.0 size=N/A time=00:09:57.01 bitrate=N/A speed=18.1x    frame=14580 fps=434 q=-0.0 size=N/A time=00:10:08.10 bitrate=N/A speed=18.1x    frame=14823 fps=435 q=-0.0 size=N/A time=00:10:18.24 bitrate=N/A speed=18.1x    frame=15066 fps=435 q=-0.0 size=N/A time=00:10:28.37 bitrate=N/A speed=18.2x    frame=15351 fps=437 q=-0.0 size=N/A time=00:10:40.26 bitrate=N/A speed=18.2x    frame=15601 fps=438 q=-0.0 size=N/A time=00:10:50.69 bitrate=N/A speed=18.3x    frame=15858 fps=439 q=-0.0 size=N/A time=00:11:01.41 bitrate=N/A speed=18.3x    frame=16107 fps=439 q=-0.0 size=N/A time=00:11:11.79 bitrate=N/A speed=18.3x    frame=16343 fps=439 q=-0.0 size=N/A time=00:11:21.63 bitrate=N/A speed=18.3x    frame=16583 fps=440 q=-0.0 size=N/A time=00:11:31.64 bitrate=N/A speed=18.3x    frame=16805 fps=440 q=-0.0 size=N/A time=00:11:40.90 bitrate=N/A speed=18.3x    frame=17026 fps=440 q=-0.0 size=N/A time=00:11:50.12 bitrate=N/A speed=18.3x    frame=17298 fps=441 q=-0.0 size=N/A time=00:12:01.47 bitrate=N/A speed=18.4x    frame=17542 fps=441 q=-0.0 size=N/A time=00:12:11.64 bitrate=N/A speed=18.4x    frame=17802 fps=442 q=-0.0 size=N/A time=00:12:22.49 bitrate=N/A speed=18.4x    frame=18049 fps=442 q=-0.0 size=N/A time=00:12:32.79 bitrate=N/A speed=18.5x    frame=18287 fps=443 q=-0.0 size=N/A time=00:12:42.72 bitrate=N/A speed=18.5x    frame=18532 fps=443 q=-0.0 size=N/A time=00:12:52.93 bitrate=N/A speed=18.5x    frame=18743 fps=443 q=-0.0 size=N/A time=00:13:01.73 bitrate=N/A speed=18.5x    frame=18964 fps=443 q=-0.0 size=N/A time=00:13:10.95 bitrate=N/A speed=18.5x    frame=19247 fps=444 q=-0.0 size=N/A time=00:13:22.76 bitrate=N/A speed=18.5x    frame=19454 fps=443 q=-0.0 size=N/A time=00:13:31.39 bitrate=N/A speed=18.5x    frame=19726 fps=444 q=-0.0 size=N/A time=00:13:42.73 bitrate=N/A speed=18.5x    frame=19973 fps=445 q=-0.0 size=N/A time=00:13:53.04 bitrate=N/A speed=18.5x    frame=20232 fps=445 q=-0.0 size=N/A time=00:14:03.84 bitrate=N/A speed=18.6x    frame=20484 fps=446 q=-0.0 size=N/A time=00:14:14.35 bitrate=N/A speed=18.6x    frame=20713 fps=446 q=-0.0 size=N/A time=00:14:23.90 bitrate=N/A speed=18.6x    frame=20963 fps=446 q=-0.0 size=N/A time=00:14:34.33 bitrate=N/A speed=18.6x    frame=21149 fps=445 q=-0.0 size=N/A time=00:14:42.08 bitrate=N/A speed=18.6x    frame=21310 fps=444 q=-0.0 size=N/A time=00:14:48.80 bitrate=N/A speed=18.5x    frame=21479 fps=443 q=-0.0 size=N/A time=00:14:55.85 bitrate=N/A speed=18.5x    frame=21635 fps=441 q=-0.0 size=N/A time=00:15:02.35 bitrate=N/A speed=18.4x    frame=21787 fps=440 q=-0.0 size=N/A time=00:15:08.69 bitrate=N/A speed=18.3x    frame=21939 fps=438 q=-0.0 size=N/A time=00:15:15.03 bitrate=N/A speed=18.3x    frame=22155 fps=438 q=-0.0 size=N/A time=00:15:24.04 bitrate=N/A speed=18.3x    frame=22423 fps=439 q=-0.0 size=N/A time=00:15:35.22 bitrate=N/A speed=18.3x    frame=22681 fps=439 q=-0.0 size=N/A time=00:15:45.98 bitrate=N/A speed=18.3x    frame=22927 fps=440 q=-0.0 size=N/A time=00:15:56.24 bitrate=N/A speed=18.3x    frame=23174 fps=440 q=-0.0 size=N/A time=00:16:06.54 bitrate=N/A speed=18.4x    frame=23425 fps=441 q=-0.0 size=N/A time=00:16:17.01 bitrate=N/A speed=18.4x    frame=23688 fps=441 q=-0.0 size=N/A time=00:16:27.98 bitrate=N/A speed=18.4x    frame=23955 fps=442 q=-0.0 size=N/A time=00:16:39.12 bitrate=N/A speed=18.4x    frame=24208 fps=442 q=-0.0 size=N/A time=00:16:49.67 bitrate=N/A speed=18.5x    frame=24464 fps=443 q=-0.0 size=N/A time=00:17:00.35 bitrate=N/A speed=18.5x    frame=24699 fps=443 q=-0.0 size=N/A time=00:17:10.15 bitrate=N/A speed=18.5x    frame=24929 fps=443 q=-0.0 size=N/A time=00:17:19.74 bitrate=N/A speed=18.5x    frame=25172 fps=443 q=-0.0 size=N/A time=00:17:29.88 bitrate=N/A speed=18.5x    frame=25452 fps=444 q=-0.0 size=N/A time=00:17:41.56 bitrate=N/A speed=18.5x    frame=25721 fps=445 q=-0.0 size=N/A time=00:17:52.78 bitrate=N/A speed=18.6x    frame=25970 fps=445 q=-0.0 size=N/A time=00:18:03.16 bitrate=N/A speed=18.6x    frame=26211 fps=445 q=-0.0 size=N/A time=00:18:13.21 bitrate=N/A speed=18.6x    frame=26466 fps=446 q=-0.0 size=N/A time=00:18:23.85 bitrate=N/A speed=18.6x    frame=26689 fps=446 q=-0.0 size=N/A time=00:18:33.15 bitrate=N/A speed=18.6x    frame=26898 fps=445 q=-0.0 size=N/A time=00:18:41.87 bitrate=N/A speed=18.6x    frame=27110 fps=445 q=-0.0 size=N/A time=00:18:50.71 bitrate=N/A speed=18.6x    frame=27326 fps=445 q=-0.0 size=N/A time=00:18:59.72 bitrate=N/A speed=18.6x    frame=27545 fps=445 q=-0.0 size=N/A time=00:19:08.85 bitrate=N/A speed=18.5x    frame=27767 fps=445 q=-0.0 size=N/A time=00:19:18.11 bitrate=N/A speed=18.5x    frame=28031 fps=445 q=-0.0 size=N/A time=00:19:29.12 bitrate=N/A speed=18.6x    frame=28264 fps=445 q=-0.0 size=N/A time=00:19:38.84 bitrate=N/A speed=18.6x    frame=28489 fps=445 q=-0.0 size=N/A time=00:19:48.22 bitrate=N/A speed=18.6x    frame=28737 fps=445 q=-0.0 size=N/A time=00:19:58.57 bitrate=N/A speed=18.6x    frame=29008 fps=446 q=-0.0 size=N/A time=00:20:09.87 bitrate=N/A speed=18.6x    frame=29258 fps=446 q=-0.0 size=N/A time=00:20:20.30 bitrate=N/A speed=18.6x    frame=29447 fps=446 q=-0.0 size=N/A time=00:20:28.18 bitrate=N/A speed=18.6x    frame=29684 fps=446 q=-0.0 size=N/A time=00:20:38.07 bitrate=N/A speed=18.6x    frame=29929 fps=446 q=-0.0 size=N/A time=00:20:48.28 bitrate=N/A speed=18.6x    frame=30184 fps=446 q=-0.0 size=N/A time=00:20:58.92 bitrate=N/A speed=18.6x    frame=30434 fps=447 q=-0.0 size=N/A time=00:21:09.35 bitrate=N/A speed=18.6x    frame=30685 fps=447 q=-0.0 size=N/A time=00:21:19.82 bitrate=N/A speed=18.6x    frame=30954 fps=448 q=-0.0 size=N/A time=00:21:31.03 bitrate=N/A speed=18.7x    frame=31201 fps=448 q=-0.0 size=N/A time=00:21:41.34 bitrate=N/A speed=18.7x    frame=31458 fps=448 q=-0.0 size=N/A time=00:21:52.06 bitrate=N/A speed=18.7x    frame=31694 fps=448 q=-0.0 size=N/A time=00:22:01.90 bitrate=N/A speed=18.7x    frame=31927 fps=448 q=-0.0 size=N/A time=00:22:11.62 bitrate=N/A speed=18.7x    frame=32144 fps=448 q=-0.0 size=N/A time=00:22:20.67 bitrate=N/A speed=18.7x    frame=32362 fps=448 q=-0.0 size=N/A time=00:22:29.76 bitrate=N/A speed=18.7x    frame=32559 fps=447 q=-0.0 size=N/A time=00:22:37.98 bitrate=N/A speed=18.7x    frame=32772 fps=447 q=-0.0 size=N/A time=00:22:46.86 bitrate=N/A speed=18.7x    frame=32970 fps=447 q=-0.0 size=N/A time=00:22:55.12 bitrate=N/A speed=18.6x    frame=33185 fps=447 q=-0.0 size=N/A time=00:23:04.09 bitrate=N/A speed=18.6x    frame=33393 fps=446 q=-0.0 size=N/A time=00:23:12.76 bitrate=N/A speed=18.6x    frame=33563 fps=445 q=-0.0 size=N/A time=00:23:19.85 bitrate=N/A speed=18.6x    frame=33732 fps=445 q=-0.0 size=N/A time=00:23:26.90 bitrate=N/A speed=18.5x    frame=33916 fps=444 q=-0.0 size=N/A time=00:23:34.57 bitrate=N/A speed=18.5x    frame=34121 fps=444 q=-0.0 size=N/A time=00:23:43.13 bitrate=N/A speed=18.5x    frame=34332 fps=444 q=-0.0 size=N/A time=00:23:51.93 bitrate=N/A speed=18.5x    frame=34525 fps=443 q=-0.0 size=N/A time=00:23:59.98 bitrate=N/A speed=18.5x    [Parsed_ssim_10 @ 000002853e297200] SSIM Y:0.993139 (21.636212) U:0.993946 (22.179309) V:0.994071 (22.270175) All:0.993429 (21.823592)
[out#0/null @ 000002853be8fe00] video:14858KiB audio:270432KiB subtitle:0KiB other streams:0KiB global headers:0KiB muxing overhead: unknown
frame=34578 fps=443 q=-0.0 Lsize=N/A time=00:24:02.19 bitrate=N/A speed=18.5x    
